<?xml version="1.0" encoding="iso-8859-1"?>
<!-- Generator: Adobe Illustrator 19.0.0, SVG Export Plug-In . SVG Version: 6.00 Build 0)  -->
<svg version="1.1" id="Layer_1" xmlns="http://www.w3.org/2000/svg" xmlns:xlink="http://www.w3.org/1999/xlink" x="0px" y="0px"
	 viewBox="0 0 511.998 511.998" style="enable-background:new 0 0 511.998 511.998;" xml:space="preserve">
<g>
	
		<rect x="432.329" y="29.955" transform="matrix(0.7071 -0.7071 0.7071 0.7071 104.1294 343.2537)" style="fill:#FFAA7C;" width="68.16" height="31.954"/>
	<polygon style="fill:#FFAA7C;" points="119.063,444.629 67.712,393.278 17.731,481.602 30.74,494.611 	"/>
</g>
<g>
	
		<rect x="205.864" y="59.762" transform="matrix(0.7071 0.7071 -0.7071 0.7071 261.9735 -92.1098)" style="fill:#8ECAC1;" width="72.618" height="420.825"/>
	
		<rect x="407.589" y="48.103" transform="matrix(-0.7071 0.7071 -0.7071 -0.7071 790.1984 -158.4875)" style="fill:#8ECAC1;" width="40.668" height="72.618"/>
</g>
<rect x="375.662" y="48.161" transform="matrix(0.7071 -0.7071 0.7071 0.7071 44.3669 306.0671)" style="fill:#F2D59F;" width="31.954" height="102.634"/>
<g>
	<path style="fill:#4D3D36;" d="M236.736,167.38c-3.983,3.983-3.983,10.441,0,14.425c1.992,1.992,4.602,2.987,7.212,2.987
		c2.61,0,5.221-0.995,7.212-2.987l92.895-92.895l6.801,6.801L60.501,386.067c-0.665,0.665-1.21,1.404-1.652,2.185
		c-0.002,0-0.012,0.003-0.012,0.003L8.854,476.578c-2.009,3.551-1.685,7.904,0.696,11.105l-6.562,6.562
		c-3.983,3.983-3.983,10.441,0,14.425c1.992,1.992,4.602,2.987,7.212,2.987s5.221-0.995,7.212-2.987l6.5-6.5
		c1.914,1.73,4.356,2.64,6.831,2.64c1.718,0,3.447-0.433,5.019-1.323l88.324-49.981l0.004-0.013
		c0.791-0.449,1.531-0.996,2.185-1.651l348.919-348.919c3.983-3.983,3.983-10.441,0-14.424l-7.166-7.166l40.984-40.986
		c3.983-3.983,3.983-10.441,0-14.424L486.418,3.328c-1.912-1.912-4.507-2.987-7.212-2.987s-5.299,1.075-7.212,2.987L431.01,44.313
		l-7.167-7.167c-3.983-3.983-10.441-3.983-14.425,0l-21.545,21.545l-14.012-14.012c-1.912-1.912-4.507-2.987-7.212-2.987
		s-5.3,1.075-7.212,2.987L236.736,167.38z M358.478,74.485l8.171-8.171l58.152,58.153l-8.171,8.17L358.478,74.485z M402.207,147.062
		L119.064,430.206l-36.927-36.927L365.28,110.135L402.207,147.062z M30.427,479.875l39.557-69.901l32.385,32.385l-69.901,39.557
		L30.427,479.875z M453.558,95.711l-14.333,14.333l-36.927-36.928l14.333-14.333L453.558,95.711z M453.604,66.908l-8.171-8.171
		l33.773-33.774l8.171,8.171L453.604,66.908z"/>
	<path style="fill:#4D3D36;" d="M258.55,273.848c2.61,0,5.221-0.995,7.212-2.987l4.59-4.59c3.983-3.983,3.983-10.441,0-14.425
		c-3.983-3.983-10.441-3.983-14.425,0l-4.59,4.59c-3.983,3.983-3.983,10.441,0,14.425C253.33,272.852,255.94,273.848,258.55,273.848
		z"/>
	<path style="fill:#4D3D36;" d="M112.629,409.57c1.992,1.992,4.602,2.987,7.212,2.987c2.61,0,5.221-0.995,7.212-2.987
		l113.211-113.211c3.983-3.983,3.983-10.441,0-14.425c-3.983-3.983-10.441-3.983-14.425,0L112.628,395.145
		C108.646,399.129,108.646,405.587,112.629,409.57z"/>
</g>
<g>
</g>
<g>
</g>
<g>
</g>
<g>
</g>
<g>
</g>
<g>
</g>
<g>
</g>
<g>
</g>
<g>
</g>
<g>
</g>
<g>
</g>
<g>
</g>
<g>
</g>
<g>
</g>
<g>
</g>
</svg>
